<?xml version="1.0" encoding="utf-8"?>
<!-- Generator: Adobe Illustrator 16.0.0, SVG Export Plug-In . SVG Version: 6.00 Build 0)  -->
<!DOCTYPE svg PUBLIC "-//W3C//DTD SVG 1.1//EN" "http://www.w3.org/Graphics/SVG/1.1/DTD/svg11.dtd">
<svg version="1.1" id="Layer_1" xmlns="http://www.w3.org/2000/svg" xmlns:xlink="http://www.w3.org/1999/xlink" x="0px" y="0px"
	 width="400px" height="400px" viewBox="0 0 400 400" enable-background="new 0 0 400 400" xml:space="preserve">
<path fill="#CAC9C9" d="M200.672,3.386c108.264-1.58,198.559,88.742,198.085,198.378c-0.472,109.277-88.763,197.819-198.592,197.662
	C91.25,399.27,1.893,310.837,2.385,200.007C2.865,91.885,92.03,1.777,200.672,3.386z M304.558,202.949
	c0-41.817,0.002-83.633-0.001-125.45c-0.001-9.105-3.912-13.047-13.033-13.049c-61.31-0.01-122.617-0.01-183.926,0
	c-9.105,0.001-13.011,3.952-13.011,13.073c-0.002,83.299-0.002,166.598,0,249.898c0,9.211,3.792,12.987,13.034,12.987
	c61.309,0.004,122.616,0.004,183.926,0c9.232,0,13.01-3.778,13.011-13.011C304.56,285.915,304.558,244.432,304.558,202.949z"/>
<path fill="#CAC9C9" d="M102.584,98.164c0-4.329-0.021-8.659,0.004-12.988c0.047-8.211,4.455-12.705,12.59-12.72
	c17.817-0.033,35.634-0.01,53.452-0.01c37.8,0,75.599-0.004,113.398,0.003c9.231,0.002,13.511,4.214,13.526,13.292
	c0.016,8.16,0.018,16.319-0.008,24.478c-0.004,1.632,0.359,3.382-1.01,4.726c-7.229,7.092-13.946,14.82-22.875,19.899
	c-13.714,7.8-24.177,5.157-37.135-6.049c-5.143-4.447-9.642-9.654-15.086-13.779c-14.832-11.237-29.558-10.84-44.688,0.638
	c-6.262,4.75-11.16,10.881-17.346,15.718c-15.371,12.018-27.009,9.208-40.622-2.27c-4.446-3.749-7.919-8.56-12.706-11.958
	c-1.637-1.162-1.497-2.83-1.496-4.494C102.585,107.822,102.584,102.993,102.584,98.164z"/>
<path fill="#CAC9C9" d="M102.584,221.195c4.742,4.389,8.325,8.084,12.451,11.203c15.53,11.744,31.658,11.64,47.223-0.084
	c6.683-5.032,11.951-11.524,18.483-16.722c9.525-7.577,20.77-8.452,30.891-1.761c6.161,4.073,10.964,9.659,16.433,14.5
	c8.64,7.646,18.272,13.364,30.38,13.079c10.58-0.249,18.887-5.642,26.688-12.054c3.29-2.705,6.452-5.566,10.346-8.939
	c0,15.396,0.249,29.975-0.133,44.537c-0.137,5.221-5.292,9.116-10.67,9.449c-0.996,0.062-1.999,0.014-2.999,0.014
	c-55.156,0-110.312,0.003-165.468-0.002c-9.462-0.001-13.614-4.188-13.62-13.717C102.578,247.923,102.584,235.146,102.584,221.195z
	 M189.545,240.643c-6.935,5.894-8.464,6.066-15.619,1.932c-1.869-1.081-3.705-2.221-5.589-3.274
	c-1.175-0.657-2.498-1.301-3.773-0.502c-1.578,0.989-1.34,2.902-0.817,4.077c2.286,5.143,2.852,10.381,1.902,15.882
	c-0.233,1.353,0.172,2.754,1.572,3.384c1.494,0.67,2.482-0.421,3.469-1.33c2.553-2.354,4.674-5.201,8.092-6.541
	c3.252-1.271,6.861-0.688,7.421,2.373c0.903,4.93,4.063,4.277,7.258,4.762c2.915,0.441,5.712-2.123,9.023-0.074
	c-1.156,2.029-0.86,4.066-0.082,6.182c0.604,1.645,1.246,3.239,3.008,3.674c2.188,0.541,3.77-1.189,4.308-2.713
	c2.218-6.256,6.843-8.4,12.974-8.648c1.447-0.059,2.908-0.646,4.295-1.174c9.123-3.469,9.41-5.478,2.799-12.658
	c-3.186-3.461-8.018-4.275-11.004-7.543c-3.102-3.396-6.686-5.116-11.004-6.219c-5.133-1.312-10.271-0.67-15.397-0.727
	c-2.515-0.027-6.009-1.434-7.39,1.164c-1.57,2.953,2.309,4.262,3.65,6.386C188.9,239.463,189.123,239.896,189.545,240.643z"/>
<path fill="#CAC9C9" d="M295.543,133.579c0,8.493,0.006,15.453-0.013,22.413c-0.001,0.485-0.002,1.157-0.294,1.428
	c-9.811,9.085-18.169,20.119-31.866,24.032c-10.869,3.105-19.306-1.982-27.47-8.151c-6.387-4.826-11.323-11.223-17.811-15.955
	c-15.179-11.075-29.888-9.483-44.092,2.222c-5.762,4.749-10.875,10.294-16.715,14.934c-15.21,12.087-26.805,9.604-40.878-2.757
	c-3.619-3.178-6.695-6.946-10.651-9.778c-2.293-1.642-3.354-3.803-3.241-6.827c0.235-6.259,0.071-12.533,0.071-19.583
	c4.235,3.628,7.684,6.911,11.458,9.762c17.313,13.081,31.662,13.015,49.081,0.076c4.841-3.595,8.934-7.965,13.188-12.176
	c13.911-13.768,28.289-13.871,42.294-0.149c5.352,5.241,10.578,10.572,16.858,14.764c15.494,10.34,30.707,9.806,45.683-1.411
	C285.915,142.849,289.804,138.305,295.543,133.579z"/>
<path fill="#CAC9C9" d="M102.59,178.592c5.039,4.299,9.101,8.258,13.645,11.551c15.704,11.38,30.455,10.742,46.663-1.536
	c4.539-3.438,8.479-7.477,12.492-11.459c14.934-14.822,29.03-14.861,44.186-0.156c4.174,4.05,8.095,8.34,12.816,11.844
	c19.077,14.155,34.855,12.252,53.237-3.011c3.053-2.535,5.604-5.673,9.852-8.093c0,7.59,0.011,14.781-0.027,21.972
	c-0.002,0.44-0.271,1.017-0.61,1.298c-7.291,6.041-13.036,13.749-21.16,18.934c-14.536,9.277-26.168,5.674-38.275-4.01
	c-6.123-4.896-10.914-11.201-17.445-15.619c-15.795-10.684-31.909-9.276-45.781,3.897c-5.416,5.144-10.761,10.491-16.806,14.812
	c-12.948,9.252-24.153,8.528-36.333-1.766c-4.948-4.182-9.532-8.793-14.289-13.201c-1.25-1.158-2.213-2.361-2.191-4.26
	C102.636,192.991,102.59,186.193,102.59,178.592z"/>
<path fill="#CAC9C9" d="M198.74,286.415c11.076,0.023,20.656,8.281,20.527,20.562c-0.121,11.41-8.269,20.354-21.236,20.411
	c-10.879,0.051-20.315-9.43-20.422-20.34C177.499,295.779,187.131,286.374,198.74,286.415z"/>
<path fill="#CAC9C9" d="M126.229,316.413c-4.152,0-8.305,0.039-12.456-0.009c-6.243-0.071-11.314-4.736-11.179-10.217
	c0.131-5.273,5.131-9.72,11.136-9.757c8.636-0.054,17.272-0.064,25.908,0.004c5.965,0.05,10.917,4.645,10.93,9.96
	c0.013,5.316-4.939,9.915-10.887,10.005C135.197,316.467,130.712,316.413,126.229,316.413z"/>
<path fill="#CAC9C9" d="M272.124,316.413c-4.152,0-8.305,0.041-12.456-0.01c-5.996-0.074-10.98-4.516-11.092-9.804
	c-0.114-5.477,4.96-10.134,11.221-10.17c8.636-0.051,17.272-0.068,25.908,0.007c5.934,0.054,10.884,4.729,10.844,10.043
	c-0.04,5.326-4.981,9.839-10.973,9.922C281.093,316.462,276.608,316.413,272.124,316.413z"/>
</svg>
